<svg width="440" height="131" viewBox="0 0 440 131" fill="none" xmlns="http://www.w3.org/2000/svg">
<path d="M145.098 112V26.6875H175.039C185.977 26.6875 194.453 30.2227 200.469 37.293C206.523 44.3242 209.551 54.1875 209.551 66.8828V71.5117C209.551 84.168 206.543 94.0898 200.527 101.277C194.512 108.426 186.016 112 175.039 112H145.098ZM165.254 97.6445H172.93C178.008 97.6445 181.895 95.7109 184.59 91.8438C187.285 87.9766 188.633 82.1758 188.633 74.4414V64.3633C188.633 56.5117 187.227 50.7695 184.414 47.1367C181.641 43.4648 177.812 41.6289 172.93 41.6289H165.254V97.6445ZM216.172 71.6289V67.0586C216.172 52.4492 219.434 41.8828 225.957 35.3594C232.52 28.7969 240.938 25.5156 251.211 25.5156C261.484 25.5156 269.883 28.7969 276.406 35.3594C282.969 41.8828 286.25 52.4492 286.25 67.0586V71.6289C286.25 86.2383 282.969 96.8242 276.406 103.387C269.883 109.91 261.484 113.172 251.211 113.172C240.938 113.172 232.52 109.91 225.957 103.387C219.434 96.8242 216.172 86.2383 216.172 71.6289ZM237.793 77.6641C237.793 85.4375 238.965 90.9453 241.309 94.1875C243.691 97.4297 246.992 99.0508 251.211 99.0508C255.391 99.0508 258.672 97.4297 261.055 94.1875C263.438 90.9453 264.629 85.4375 264.629 77.6641V61.082C264.629 53.3867 263.438 47.9375 261.055 44.7344C258.672 41.5312 255.391 39.9297 251.211 39.9297C246.992 39.9297 243.691 41.5312 241.309 44.7344C238.965 47.9375 237.793 53.3867 237.793 61.082V77.6641ZM292.812 71.6289V67.0586C292.812 52.293 296.035 41.6875 302.48 35.2422C308.965 28.7578 317.383 25.5156 327.734 25.5156C337.695 25.5156 345.43 27.8984 350.938 32.6641C356.445 37.3906 359.199 44.5781 359.199 54.2266V59.5586H339.629V52.3516C339.629 48.2891 338.652 45.2031 336.699 43.0938C334.785 40.9453 331.914 39.8711 328.086 39.8711C323.906 39.8711 320.664 41.5703 318.359 44.9688C316.055 48.3672 314.902 53.7188 314.902 61.0234V77.6641C314.902 85.0469 316.074 90.457 318.418 93.8945C320.801 97.332 324.082 99.0508 328.262 99.0508C332.012 99.0508 334.844 97.9375 336.758 95.7109C338.672 93.4844 339.629 89.9102 339.629 84.9883V79.4219H359.199V85.8086C359.238 94.4023 356.504 101.102 350.996 105.906C345.488 110.711 337.715 113.113 327.676 113.113C316.816 113.113 308.281 109.832 302.07 103.27C295.898 96.707 292.812 86.1602 292.812 71.6289ZM366.055 89.2656V84.4609H384.863V87.5078C384.824 91.5703 385.859 94.5977 387.969 96.5898C390.078 98.543 393.027 99.5195 396.816 99.5195C400.41 99.5195 403.184 98.6211 405.137 96.8242C407.09 95.0273 408.066 92.5859 408.066 89.5C408.066 86.9609 406.934 84.832 404.668 83.1133C402.441 81.3945 398.281 79.5195 392.188 77.4883C383.398 74.5586 377.012 70.9258 373.027 66.5898C369.043 62.2539 367.051 56.7461 367.051 50.0664C367.051 42.4883 369.688 36.5117 374.961 32.1367C380.273 27.7617 387.344 25.5742 396.172 25.5742C404.922 25.5742 411.992 27.5664 417.383 31.5508C422.812 35.4961 425.527 41.1406 425.527 48.4844V52.293H407.012V50.125C407.012 46.8438 406.113 44.2852 404.316 42.4492C402.52 40.6133 399.941 39.6953 396.582 39.6953C392.988 39.6953 390.391 40.4961 388.789 42.0977C387.188 43.6992 386.387 45.7891 386.387 48.3672C386.387 50.7109 387.578 52.7031 389.961 54.3438C392.383 55.9453 396.816 57.7422 403.262 59.7344C411.738 62.3516 417.871 65.8672 421.66 70.2812C425.449 74.6562 427.344 80.418 427.344 87.5664C427.344 95.5742 424.551 101.844 418.965 106.375C413.418 110.906 406.133 113.172 397.109 113.172C388.047 113.172 380.605 111.16 374.785 107.137C368.965 103.113 366.055 97.1562 366.055 89.2656Z" fill="black"/>
<g clip-path="url(#clip0_501_3)">
<path d="M94.6416 11H25.3584C11.3533 11 0 22.3531 0 36.3582V105.641C0 119.646 11.3533 131 25.3584 131H94.6416C108.647 131 120 119.646 120 105.641V36.3582C120 22.3531 108.647 11 94.6416 11Z" fill="url(#paint0_linear_501_3)"/>
<path d="M52.8 35C36.9216 35 24 47.9216 24 63.8C24 79.6784 36.9216 92.6 52.8 92.6C59.8752 92.6 66.384 90.104 71.4 85.8512L96.6 111.051C96.8067 111.315 97.0664 111.532 97.3622 111.69C97.6581 111.847 97.9837 111.941 98.3179 111.965C98.6521 111.989 98.9877 111.942 99.3029 111.828C99.6182 111.715 99.9061 111.536 100.148 111.305C100.39 111.073 100.581 110.793 100.709 110.483C100.836 110.173 100.897 109.84 100.888 109.505C100.879 109.17 100.8 108.841 100.656 108.538C100.511 108.236 100.306 107.967 100.051 107.749L74.6976 82.4C79.1309 77.2144 81.5772 70.6223 81.6 63.8C81.6 47.9216 68.6784 35 52.8 35ZM52.8 39.8C66.0816 39.8 76.8 50.5184 76.8 63.8C76.8 77.0816 66.0816 87.8 52.8 87.8C39.5184 87.8 28.8 77.0816 28.8 63.8C28.8 50.5184 39.5184 39.8 52.8 39.8Z" fill="white"/>
</g>
<defs>
<linearGradient id="paint0_linear_501_3" x1="20.7149" y1="32.878" x2="287.546" y2="291.939" gradientUnits="userSpaceOnUse">
<stop stop-color="#24F3D2"/>
<stop offset="0.394" stop-color="#0674F0"/>
<stop offset="0.507" stop-color="#6961B5"/>
<stop offset="0.813" stop-color="#F34660"/>
<stop offset="1" stop-color="#EE078D"/>
</linearGradient>
<clipPath id="clip0_501_3">
<rect width="120" height="120" fill="white" transform="translate(0 11)"/>
</clipPath>
</defs>
</svg>