<svg xmlns="http://www.w3.org/2000/svg" xmlns:xlink="http://www.w3.org/1999/xlink" width="25" height="25" id="search"><defs><linearGradient id="a"><stop offset="0" stop-color="#24f3d2"></stop><stop offset=".394" stop-color="#0674f0"></stop><stop offset=".507" stop-color="#6961b5"></stop><stop offset=".813" stop-color="#f34660"></stop><stop offset="1" stop-color="#ee078d"></stop></linearGradient><linearGradient id="b" x1="868.253" x2="937.656" y1="521.354" y2="588.736" gradientTransform="translate(-695.629 618.831) scale(.80097)" gradientUnits="userSpaceOnUse" xlink:href="#a"></linearGradient></defs><g fill="#fff" transform="translate(4.5 -1031.862)"><rect width="25" height="25" x="-4.5" y="1031.862" fill="url(#b)" rx="5.283" ry="5.283"></rect><path style="text-indent:0;text-align:start;line-height:normal;text-transform:none;block-progression:tb" d="M11 5c-3.308 0-6 2.692-6 6s2.692 6 6 6c1.474 0 2.83-.52 3.875-1.406l5.25 5.25a.5.5 0 1 0 .719-.688l-5.282-5.281A5.994 5.994 0 0 0 17 11c0-3.308-2.692-6-6-6zm0 1c2.767 0 5 2.233 5 5s-2.233 5-5 5-5-2.233-5-5 2.233-5 5-5z" color="#000" font-family="sans-serif" font-weight="400" overflow="visible" transform="translate(-4.5 1031.862)"></path></g></svg>